HIERARCHY
ROOT Hips
{
	OFFSET 0.000000 0.000000 0.000000 
	CHANNELS 6 Xposition Yposition Zposition Zrotation Yrotation Xrotation
	JOINT LeftUpLeg
	{
		OFFSET 1.363060 -1.794630 0.839290 
		CHANNELS 3 Zrotation Yrotation Xrotation
		JOINT LeftLeg
		{
			OFFSET 2.448110 -6.726130 0.000000 
			CHANNELS 3 Zrotation Yrotation Xrotation
			JOINT LeftFoot
			{
				OFFSET 2.562200 -7.039590 0.000000 
				CHANNELS 3 Zrotation Yrotation Xrotation
				JOINT LeftToeBase
				{
					OFFSET 0.157640 -0.433110 2.322550 
					CHANNELS 3 Zrotation Yrotation Xrotation
					End Site
					{
						OFFSET 0.000000 0.000000 0.000000 
					}
				}
			}
		}
	}
	JOINT RightUpLeg
	{
		OFFSET -1.305520 -1.794630 0.839290 
		CHANNELS 3 Zrotation Yrotation Xrotation
		JOINT RightLeg
		{
			OFFSET -2.542530 -6.985550 0.000000 
			CHANNELS 3 Zrotation Yrotation Xrotation
			JOINT RightFoot
			{
				OFFSET -2.568260 -7.056230 0.000000 
				CHANNELS 3 Zrotation Yrotation Xrotation
				JOINT RightToeBase
				{
					OFFSET -0.164730 -0.452590 2.363150 
					CHANNELS 3 Zrotation Yrotation Xrotation
					End Site
					{
						OFFSET 0.000000 0.000000 0.000000 
					}
				}
			}
		}
	}
	JOINT Spine
	{
		OFFSET 0.028270 2.035590 -0.193380 
		CHANNELS 3 Zrotation Yrotation Xrotation
		JOINT Spine1
		{
			OFFSET 0.056720 2.048850 -0.042750 
			CHANNELS 3 Zrotation Yrotation Xrotation
			JOINT Neck1
			{
				OFFSET -0.054170 1.746240 0.172020 
				CHANNELS 3 Zrotation Yrotation Xrotation
				JOINT Head
				{
					OFFSET 0.104070 1.761360 -0.123970 
					CHANNELS 3 Zrotation Yrotation Xrotation
					End Site
					{
						OFFSET 0.000000 0.000000 0.000000 
					}
				}
			}
			JOINT LeftArm
			{
				OFFSET 3.362410 1.200890 -0.311210 
				CHANNELS 3 Zrotation Yrotation Xrotation
				JOINT LeftForeArm
				{
					OFFSET 4.983000 -0.000000 -0.000000 
					CHANNELS 3 Zrotation Yrotation Xrotation
					JOINT LeftHand
					{
						OFFSET 3.483560 -0.000000 -0.000000 
						CHANNELS 3 Zrotation Yrotation Xrotation
						JOINT LeftHandIndex1
						{
							OFFSET 0.715260 -0.000000 -0.000000 
							CHANNELS 3 Zrotation Yrotation Xrotation
							End Site
							{
								OFFSET 0.000000 0.000000 0.000000 
							}
						}
					}
				}
			}
			JOINT RightArm
			{
				OFFSET -3.136600 1.374050 -0.404650 
				CHANNELS 3 Zrotation Yrotation Xrotation
				JOINT RightForeArm
				{
					OFFSET -5.241900 -0.000000 -0.000000 
					CHANNELS 3 Zrotation Yrotation Xrotation
					JOINT RightHand
					{
						OFFSET -3.444170 -0.000000 -0.000000 
						CHANNELS 3 Zrotation Yrotation Xrotation
						JOINT RightHandIndex1
						{
							OFFSET -0.622530 -0.000000 -0.000000 
							CHANNELS 3 Zrotation Yrotation Xrotation
							End Site
							{
								OFFSET 0.000000 0.000000 0.000000 
							}
						}
					}
				}
			}
		}
	}
}
MOTION
Frames: 16
Frame Time: 0.041667
1.342125 17.877701 12.565355 178.593787 0.238716 -172.718178 -20.452869 -4.116657 -14.159241 -0.190560 6.905735 22.432659 1.116765 -3.330652 -0.531322 0.000400 0.123200 0.338400 11.760637 10.504287 -17.049893 -1.860506 -10.271058 31.173529 -0.624793 -0.276162 -9.268238 -0.060800 -1.591300 4.377300 0.395458 0.827406 -1.899376 4.177497 0.887048 0.165024 3.127837 1.576800 27.792454 3.124500 0.768200 16.669000 -78.139046 1.017661 21.086259 11.037355 -21.887487 -2.594079 -0.422351 -1.798708 11.369313 -7.125000 0.000000 0.000000 75.783069 -5.170784 16.615732 -16.937031 24.441929 -4.660481 0.466188 -0.514999 21.242462 7.125000 0.000000 0.000000 
1.338679 17.876586 12.564848 178.703527 0.322820 -172.691413 -20.350266 -4.096991 -14.233181 -0.179891 6.932041 22.498962 1.109888 -3.280441 -0.579434 0.000200 0.081800 0.224800 11.854240 10.545310 -17.063876 -1.853599 -10.258365 31.142620 -0.634428 -0.222590 -9.228014 -0.068900 -1.693200 4.658500 0.399813 0.861516 -1.901344 4.104586 0.907612 0.177661 2.962303 1.662754 27.979491 3.021600 0.814600 16.837500 -78.082407 1.023442 21.147576 11.055991 -21.918359 -2.602124 -0.419649 -1.802750 11.274177 -7.125000 0.000000 0.000000 75.846049 -5.122663 16.502321 -16.940387 24.443119 -4.661896 0.449188 -0.512133 21.337224 7.125000 0.000000 0.000000 
1.335638 17.878005 12.565457 178.757750 0.340967 -172.691114 -20.289888 -4.145677 -14.222166 -0.181399 6.931705 22.493737 1.100710 -3.232281 -0.598071 0.000300 0.102600 0.281900 11.904419 10.546349 -17.070663 -1.854269 -10.258427 31.147965 -0.618275 -0.274336 -9.190670 -0.060200 -1.583000 4.354600 0.428841 0.835552 -1.910227 4.134665 0.896928 0.133437 2.928401 1.699386 28.038284 3.013500 0.823700 16.888000 -78.100582 1.024502 21.137016 11.033464 -21.883312 -2.592071 -0.428658 -1.795776 11.414814 -7.125000 0.000000 0.000000 75.830254 -5.138709 16.608282 -17.008020 24.525432 -4.694510 0.439647 -0.506745 21.333908 7.125000 0.000000 0.000000 
1.332293 17.876992 12.563733 178.720508 0.380000 -172.710203 -20.356368 -4.091478 -14.205720 -0.179545 6.931279 22.497049 1.088580 -3.183794 -0.608042 0.000000 0.006300 0.017400 11.853826 10.496180 -17.085875 -1.857590 -10.264729 31.161288 -0.622750 -0.246127 -9.139999 -0.057300 -1.544500 4.248300 0.448942 0.810250 -1.906128 4.204522 0.883361 0.119404 2.926330 1.734382 28.053617 3.039600 0.819400 16.898800 -78.105175 1.031153 21.204197 11.008590 -21.847860 -2.583006 -0.425849 -1.792352 11.569771 -7.125000 0.000000 0.000000 75.767753 -5.162395 16.803651 -17.062524 24.592995 -4.720493 0.445081 -0.502880 21.206645 7.125000 0.000000 0.000000 
1.327934 17.876181 12.560389 178.657290 0.476381 -172.715445 -20.459593 -4.095944 -14.162336 -0.180913 6.923776 22.481943 1.059677 -3.067286 -0.619685 0.000100 -0.064200 -0.176400 11.758648 10.502877 -17.085063 -1.862996 -10.273096 31.179194 -0.666348 -0.075999 -9.135603 -0.066100 -1.658200 4.562000 0.435842 0.845793 -1.909202 4.212516 0.901603 0.115429 2.861154 1.788237 28.216703 3.007800 0.846400 17.034800 -78.072293 1.013026 21.217553 10.959535 -21.774441 -2.561362 -0.423334 -1.796414 11.615203 -7.125000 0.000000 0.000000 75.757353 -5.201865 16.882782 -17.092736 24.627729 -4.732796 0.453941 -0.490321 21.088093 7.125000 0.000000 0.000000 
1.324387 17.875370 12.559780 178.626283 0.529877 -172.713339 -20.513323 -4.125926 -14.139345 -0.182443 6.918535 22.470425 1.042273 -2.996433 -0.631334 0.000100 -0.068800 -0.189000 11.716815 10.460497 -17.127096 -1.868237 -10.282646 31.202611 -0.664954 -0.072202 -9.091040 -0.058800 -1.565200 4.305500 0.411106 0.857990 -1.922744 4.178772 0.909872 0.069895 2.893079 1.765677 28.162750 3.019700 0.843900 16.963800 -77.971340 1.061921 21.313370 10.964198 -21.788353 -2.562804 -0.419963 -1.805589 11.573775 -7.125000 0.000000 0.000000 75.832524 -5.269843 16.856839 -17.123842 24.665982 -4.749146 0.453043 -0.497850 21.095522 7.125000 0.000000 0.000000 
1.322055 17.876688 12.559983 178.625374 0.583039 -172.697854 -20.522013 -4.119147 -14.159951 -0.183598 6.917660 22.465222 1.039388 -2.983980 -0.630525 0.000100 -0.055100 -0.151300 11.698806 10.508949 -17.141788 -1.870201 -10.284247 31.210564 -0.656762 -0.105664 -9.098220 -0.055300 -1.517400 4.173600 0.396624 0.880263 -1.946318 4.171141 0.922268 -0.011581 3.184865 1.605175 27.825955 3.185800 0.773100 16.645000 -77.918794 1.129551 21.361680 10.977324 -21.812199 -2.566394 -0.418775 -1.815416 11.625305 -7.125000 0.000000 0.000000 75.908435 -5.355861 16.765334 -17.149365 24.698879 -4.764733 0.459060 -0.516910 21.189997 7.125000 0.000000 0.000000 
1.320332 17.877498 12.558868 178.663251 0.606326 -172.674841 -20.485779 -4.108386 -14.187866 -0.185411 6.916259 22.457603 1.036545 -2.971093 -0.602539 0.000000 0.020300 0.055800 11.735761 10.488770 -17.179583 -1.871203 -10.285768 31.216978 -0.652068 -0.116549 -9.073232 -0.049300 -1.433500 3.942400 0.412636 0.866863 -1.957033 4.194758 0.917126 -0.031002 3.223533 1.614568 27.733074 3.211100 0.775600 16.547400 -77.924806 1.203901 21.309561 11.027163 -21.891612 -2.588491 -0.411181 -1.822379 11.600741 -7.125000 0.000000 0.000000 75.925559 -5.394235 16.705226 -17.156813 24.707338 -4.768279 0.461275 -0.514819 21.355763 7.125000 0.000000 0.000000 
1.318406 17.877296 12.557145 178.660647 0.637381 -172.650022 -20.494388 -4.145120 -14.188357 -0.185231 6.917235 22.460369 1.016426 -2.888766 -0.583302 -0.000000 0.022900 0.062800 11.721539 10.513691 -17.200950 -1.868846 -10.283708 31.207035 -0.647440 -0.128354 -9.046348 -0.046700 -1.395000 3.836500 0.447575 0.824760 -1.949444 4.272781 0.895682 0.021287 3.040706 1.793140 28.078236 3.122100 0.855900 16.836300 -78.011844 1.157615 21.101039 11.020210 -21.876852 -2.586383 -0.417001 -1.813917 11.634540 -7.125000 0.000000 0.000000 75.822753 -5.337170 16.867950 -17.148912 24.695671 -4.760920 0.465496 -0.497382 21.353875 7.125000 0.000000 0.000000 
1.315062 17.876789 12.554915 178.616774 0.629218 -172.666440 -20.555151 -4.141240 -14.157247 -0.183943 6.916166 22.462573 1.016545 -2.892306 -0.607048 0.000200 -0.101300 -0.278400 11.669202 10.474721 -17.191146 -1.869063 -10.285579 31.206103 -0.653449 -0.095665 -9.001096 -0.048000 -1.413300 3.886800 0.455325 0.783780 -1.928664 4.316007 0.872838 0.057558 2.941318 1.854397 28.248828 3.064700 0.885000 16.993200 -78.033301 1.102412 21.048411 11.018273 -21.871220 -2.583369 -0.430602 -1.809838 11.591139 -7.125000 0.000000 0.000000 75.776511 -5.256940 16.985521 -17.118716 24.655499 -4.744642 0.477859 -0.500304 21.250466 7.125000 0.000000 0.000000 
1.312122 17.875471 12.554712 178.587571 0.591009 -172.680267 -20.594652 -4.184867 -14.113110 -0.184616 6.912560 22.456037 1.016371 -2.890257 -0.652748 0.000200 -0.085700 -0.235600 11.624609 10.441047 -17.176772 -1.871373 -10.288966 31.212201 -0.687064 0.033105 -9.009129 -0.057500 -1.546700 4.254400 0.455390 0.742674 -1.916412 4.329203 0.851182 0.066065 2.891686 1.843166 28.237917 3.032900 0.875600 16.991700 -78.032788 1.096662 21.029263 11.054677 -21.926494 -2.600022 -0.428481 -1.809763 11.497096 -7.125000 0.000000 0.000000 75.787782 -5.217916 17.023253 -17.103677 24.634187 -4.737401 0.491120 -0.512799 21.181996 7.125000 0.000000 0.000000 
1.310602 17.873951 12.554611 178.524231 0.622998 -172.675879 -20.675207 -4.198843 -14.102462 -0.183653 6.911879 22.457912 1.007258 -2.854565 -0.681330 0.000100 -0.046200 -0.127000 11.542174 10.455731 -17.177150 -1.873612 -10.292923 31.217559 -0.709565 0.118020 -9.014125 -0.065300 -1.648200 4.534400 0.442522 0.736311 -1.913904 4.352213 0.847806 0.075424 2.862364 1.847373 28.241684 3.014000 0.879100 16.978800 -78.000884 1.156627 21.130635 11.109058 -22.014800 -2.624452 -0.414564 -1.821178 11.323997 -7.125000 0.000000 0.000000 75.818620 -5.233028 16.981887 -17.115922 24.647445 -4.743582 0.497605 -0.517680 21.186316 7.125000 0.000000 0.000000 
1.307561 17.872734 12.552584 178.525624 0.627856 -172.705798 -20.689753 -4.157179 -14.091100 -0.178118 6.920416 22.485490 1.014864 -2.885170 -0.702216 0.000100 -0.051300 -0.140900 11.537098 10.458031 -17.139060 -1.871177 -10.289880 31.208344 -0.691691 0.047926 -9.009348 -0.061300 -1.597400 4.394300 0.434407 0.742840 -1.894379 4.325469 0.849716 0.104762 2.791064 1.834674 28.214344 2.960500 0.877500 16.945100 -77.967005 1.123143 21.174704 11.109424 -22.014562 -2.622176 -0.405753 -1.835233 11.305582 -7.125000 0.000000 0.000000 75.872499 -5.265177 16.922754 -17.163670 24.704663 -4.767852 0.499211 -0.521676 21.144241 7.125000 0.000000 0.000000 
1.305432 17.871113 12.551367 178.533941 0.584704 -172.734691 -20.683753 -4.196156 -14.059856 -0.171225 6.933536 22.525230 1.013622 -2.879740 -0.715850 0.000200 -0.101000 -0.277600 11.549685 10.437173 -17.094341 -1.866727 -10.283354 31.189063 -0.678146 -0.008828 -9.019197 -0.058100 -1.555500 4.278800 0.439047 0.705056 -1.868896 4.316824 0.828132 0.140468 2.730186 1.858504 28.177735 2.919600 0.885200 16.924700 -77.954682 1.023769 21.129195 11.091173 -21.982249 -2.613593 -0.406354 -1.835297 11.411353 -7.125000 0.000000 0.000000 75.849250 -5.240140 16.979691 -17.177982 24.723170 -4.775288 0.497425 -0.523288 21.061397 7.125000 0.000000 0.000000 
1.303000 17.871315 12.551165 178.580717 0.544773 -172.771177 -20.633906 -4.227180 -14.042567 -0.163392 6.950373 22.572184 1.025608 -2.922624 -0.754388 0.000100 -0.054800 -0.150600 11.605248 10.393657 -17.045146 -1.861821 -10.273321 31.163828 -0.710149 0.110031 -9.055253 -0.059100 -1.568800 4.315300 0.458480 0.679631 -1.842398 4.320967 0.812933 0.154503 2.735319 1.894301 28.183875 2.926100 0.896400 16.956000 -77.947215 0.918918 21.095815 11.032124 -21.888939 -2.590589 -0.424508 -1.811638 11.548509 -7.125000 0.000000 0.000000 75.797910 -5.169127 16.983687 -17.154822 24.693431 -4.762421 0.495911 -0.513901 21.085884 7.125000 0.000000 0.000000 
1.301074 17.871214 12.551773 178.683632 0.502448 -172.767452 -20.509989 -4.271485 -14.074202 -0.157919 6.967383 22.613237 1.035435 -2.955071 -0.750176 0.000100 0.062300 0.171200 11.715328 10.375593 -17.041377 -1.857459 -10.263107 31.143091 -0.732174 0.193859 -9.085045 -0.062400 -1.612300 4.435400 0.475270 0.653479 -1.854102 4.288912 0.803121 0.097883 2.753287 1.909435 28.259117 2.936300 0.908500 17.028000 -77.886370 0.938431 21.158248 11.000667 -21.845495 -2.578763 -0.440273 -1.795924 11.617110 -7.125000 0.000000 0.000000 75.776693 -5.144126 17.038791 -17.116749 24.644894 -4.740753 0.494132 -0.498444 21.034088 7.125000 0.000000 0.000000 
